<?xml version="1.0" encoding="utf-8"?>
<!-- Generator: Adobe Illustrator 16.0.0, SVG Export Plug-In . SVG Version: 6.00 Build 0)  -->
<!DOCTYPE svg PUBLIC "-//W3C//DTD SVG 1.1//EN" "http://www.w3.org/Graphics/SVG/1.1/DTD/svg11.dtd">
<svg version="1.1" id="logo_icon" xmlns="http://www.w3.org/2000/svg" xmlns:xlink="http://www.w3.org/1999/xlink" x="0px" y="0px"
	 width="512px" height="361.168px" viewBox="0 0 512 361.168" enable-background="new 0 0 512 361.168" xml:space="preserve">
<g>
	<g>
		<g>
			<g>
				<path fill="#347AB4" d="M94.095,266.474l19.172-8.681l14.792-6.698c0,0-30.594-49.981,12.845-74.316
					c0.931-0.526,1.543-1.285,1.854-2.121c0.853-2.302-0.466-5.224-3.336-5.663c-12.009-1.845-31.353,0.111-46.171,25.24
					C70.104,233.483,94.095,266.474,94.095,266.474z"/>
			</g>
			<g>
				<path fill="#FFF46E" d="M113.267,257.793l14.792-6.698c0,0-30.594-49.981,12.845-74.316c0.931-0.526,1.543-1.285,1.854-2.121
					c-7.655-0.913-19.017,0.811-28.611,14.784C99.768,210.381,108.198,245.009,113.267,257.793z"/>
			</g>
			<g opacity="0.25">
				<path fill="#000072" d="M99.397,264.068l10.896-4.931c-5.181-9-17.939-36.99,1.061-69.213
					c5.957-10.112,12.663-16.466,19.31-20.336c-9.974,2.267-21.137,8.896-30.499,24.766
					C80.803,227.19,94.431,255.646,99.397,264.068z"/>
			</g>
			<g>
				<path d="M91.741,268.181c-0.258-0.355-6.377-8.875-9.578-22.442c-2.953-12.52-3.862-31.874,8.585-52.983
					c16.081-27.268,37.671-28.391,49.117-26.633c3.057,0.471,5.388,2.743,5.94,5.791c0.544,3.007-0.822,5.912-3.481,7.401
					c-10.883,6.099-17.776,14.435-20.485,24.776c-5.657,21.6,8.553,45.254,8.697,45.491l0,0c0.435,0.711,0.543,1.573,0.298,2.37
					c-0.245,0.797-0.821,1.45-1.58,1.794L95.292,269.12c-0.387,0.175-0.794,0.259-1.197,0.259
					C93.187,269.379,92.303,268.953,91.741,268.181z M116.207,202.649c3.119-11.942,10.95-21.5,23.275-28.407
					c0.66-0.37,0.66-0.969,0.602-1.294c-0.051-0.281-0.26-0.949-1.102-1.078c-12.198-1.878-29.603,0.738-43.224,23.838
					c-9.16,15.534-11.849,31.839-7.99,48.462c2.063,8.884,5.55,15.505,7.414,18.618l28.796-13.035
					C120.123,242.405,111.094,222.233,116.207,202.649z"/>
			</g>
		</g>
		<g>
			<g>
				<g>
					<path fill="#21E871" d="M62.168,266.47c0,0,10.917,11.463-1.184,28.895c-0.084,0.119-0.163,0.23-0.248,0.349
						c-2.081,2.929-4.562,5.541-7.353,7.81c-13.522,11.023-34.158,14.002-50.603,6.662c0,0,0.432-1.758,1.329-4.605
						c0.474-1.49,1.075-3.289,1.821-5.284c-0.001-0.011-0.001-0.011,0.003-0.017c0.942-2.56,2.116-5.449,3.52-8.469
						C17.791,273.89,34.447,251.378,62.168,266.47z"/>
				</g>
				<g opacity="0.6">
					<path fill="#FFFFFF" d="M8.956,307.305c0,0,0.432-1.758,1.33-4.604c0.474-1.492,1.074-3.291,1.82-5.285
						c-0.001-0.011-0.001-0.011,0.003-0.017c0.942-2.56,2.116-5.449,3.52-8.468c4.415-9.491,11.164-20.268,20.653-26.066
						c-12.804,4.214-21.509,17.513-26.828,28.945c-1.404,3.02-2.578,5.909-3.52,8.469c-0.004,0.006-0.004,0.006-0.003,0.017
						c-0.746,1.995-1.347,3.794-1.821,5.284c-0.897,2.848-1.329,4.605-1.329,4.605c13.979,6.24,30.985,5.019,44.078-2.259
						C34.874,312.522,20.825,312.602,8.956,307.305z"/>
				</g>
				<g opacity="0.3">
					<path fill="#0F3B6B" d="M5.931,300.295c-0.565,1.963-1.176,3.725-1.821,5.284C4.584,304.089,5.185,302.29,5.931,300.295z"/>
				</g>
				<g opacity="0.25">
					<path fill="#000072" d="M62.168,266.47c0,0,10.917,11.463-1.184,28.895c-0.084,0.119-0.163,0.23-0.248,0.349
						c-2.367,2.653-4.874,5.322-7.353,7.81c0,0,8.696-13.755,1.64-28.368c0,0-32.401-6.289-45.569,16.655
						C17.791,273.89,34.447,251.378,62.168,266.47z"/>
				</g>
				<g opacity="0.6">
					<path fill="#FFFFFF" d="M47.534,296.273c-1.991,4.965-6.906,12.379-18.224,10.466c-1.374-0.231-1.612-2.098-0.331-2.645
						c3.735-1.593,9.718-4.553,16.447-9.438C46.544,293.846,48.048,294.991,47.534,296.273z"/>
				</g>
				<g>
					<path d="M59.813,264.769c-8.688,11.537-18.829,22.237-30.636,30.645c-3.968,2.784-8.175,5.191-12.602,7.297
						c-0.343,0.146-0.499,0.554-0.336,0.892c0.14,0.294,0.469,0.438,0.773,0.354c4.829-1.335,9.492-3.328,13.915-5.747
						c13.107-7.583,24.345-18.083,33.599-30.033C66.753,265.007,62.145,261.644,59.813,264.769L59.813,264.769z"/>
				</g>
				<g>
					<path d="M1.597,312.842c-1.282-0.572-1.973-1.979-1.641-3.343c0.378-1.552,9.524-38.104,32.551-48.293
						c9.542-4.223,19.988-3.311,31.051,2.712c0.266,0.144,0.507,0.329,0.715,0.548c0.125,0.132,12.399,13.398-0.899,32.559
						c-8.852,12.754-25.035,20.063-41.276,20.063C15.08,317.087,8.05,315.722,1.597,312.842z M34.871,266.519
						c-17.273,7.635-26.208,33.863-28.599,41.961c18.599,7.002,41.609,0.669,52.326-14.77c9.598-13.828,3.2-23.107,1.723-24.932
						C51.104,263.886,42.544,263.126,34.871,266.519z"/>
				</g>
			</g>
			<g>
				<g>
					<path fill="#D38A62" d="M22.365,260.316c0.484,0.258,0.99,0.473,1.51,0.646c8.557,2.857,85.869,27.938,200.239,40.189
						c121.384,13.01,178.567,24.498,232.2,53.449c0,0,2.056,1.307,5.435,2.373c7.345,2.316,20.979,3.467,33.429-12.57
						c5.361-6.904,7.207-13.335,7.43-18.688c0.094-2.388-0.258-4.72-1-6.9c-0.009-0.016-0.01-0.023-0.02-0.04
						c-0.011-0.04-0.031-0.105-0.063-0.195c-1.777-4.998-5.588-9.19-10.584-11.493c-0.18-0.079-0.361-0.167-0.542-0.254
						c-0.009,0-0.017,0.001-0.025-0.007c-24.372-11.135-100.686-41.546-217.47-47.021c-139.188-6.529-178.338-8.969-250.422-27.406
						c-4.991-1.271-10.132,1.464-11.845,6.319C8.514,244.769,9.043,253.183,22.365,260.316z"/>
				</g>
				<g>
					<path fill="#FFD67B" d="M461.749,356.974c7.345,2.316,20.979,3.467,33.429-12.57c5.361-6.904,7.207-13.335,7.43-18.688
						c0.094-2.388-0.258-4.72-1-6.9c-0.008,0.001-0.008,0.001-0.008,0.001s-0.001-0.017-0.012-0.041
						c-0.011-0.04-0.031-0.105-0.063-0.195c-0.476-1.458-3.316-9.097-11.126-11.747c-0.009,0-0.017,0.001-0.025-0.007
						c-4.603-1.548-10.942-1.36-19.544,2.854C451.088,319.35,444.37,348.479,461.749,356.974z"/>
				</g>
				<g opacity="0.6">
					<path fill="#FFFFFF" d="M500.465,326.389c-0.01-0.017-0.011-0.024-0.02-0.041c-0.012-0.04-0.033-0.105-0.063-0.195
						c-1.776-4.998-5.588-9.19-10.584-11.493c-0.181-0.079-0.361-0.167-0.542-0.254c-0.008,0-0.017,0.001-0.025-0.007
						c-24.371-11.135-100.686-41.546-217.47-47.021c-139.188-6.529-178.339-8.969-250.423-27.406
						c-4.733-1.206-9.596,1.195-11.547,5.588c-0.289-2.457,0.125-4.785,0.846-6.841c1.713-4.855,6.854-7.591,11.845-6.319
						c72.084,18.438,111.235,20.877,250.422,27.406c116.785,5.475,193.098,35.886,217.47,47.021
						c0.009,0.008,0.017,0.007,0.025,0.007c0.181,0.087,0.362,0.175,0.542,0.254c4.996,2.303,8.807,6.495,10.584,11.493
						c0.031,0.09,0.052,0.155,0.063,0.195c0.01,0.017,0.011,0.024,0.02,0.04c0.742,2.181,1.094,4.513,1,6.9
						c-0.088,2.117-0.436,4.404-1.148,6.82C501.459,330.412,501.127,328.338,500.465,326.389z"/>
				</g>
				<g opacity="0.25">
					<path fill="#000072" d="M10.964,237.914c0.585-1.29,1.425-2.396,2.437-3.299c2,2.56,5.082,5.112,9.65,7.486
						c0.484,0.258,0.998,0.464,1.517,0.628c7.305,2.35,64.5,20.191,151.841,32.21c-9.585-7.173-0.176-16.189-0.176-16.189
						s41.826-6.739,31.981-1.017c-7.3,4.244-2.278,15.63,0.806,21.234c5.322,0.583,10.731,1.14,16.228,1.664
						c23.867,2.283,45.248,4.537,64.622,6.898c-2.238-6.574-4.989-15.765-3.371-17.074c2.556-2.069,15.077-14.731,31.831-6.064
						c0,0-20.794,0.893-11.067,25.361c13.358,1.795,25.708,3.671,37.225,5.684c-2.399-4.702-2.239-10.996-1.381-16.034
						c1.62-9.509-3.441-12.609-3.441-12.609s27.292-1.597,32.288,13.491c0,0,1.353,13.402-6.068,19.252
						c36.799,7.74,64.91,17.587,92.164,31.898c0,0,2.07,1.28,5.455,2.313c7.373,2.231,21.021,3.223,33.286-12.95
						c1.344-1.767,2.456-3.509,3.372-5.203c0.54,0.953,0.992,1.954,1.363,2.986c0.031,0.09,0.052,0.155,0.063,0.195
						c0.01,0.017,0.011,0.024,0.02,0.04c0.742,2.181,1.094,4.513,1,6.9c-0.02,0.551-0.065,1.104-0.126,1.674
						c0.001,0.009,0.001,0.009,0.001,0.009c-1.135,3.476-3.033,7.211-6.047,11.091c-12.45,16.036-26.084,14.886-33.43,12.569
						c-3.379-1.066-5.434-2.374-5.434-2.374c-53.633-28.951-110.817-40.438-232.2-53.448
						c-114.371-12.252-191.683-37.332-200.239-40.189c-0.52-0.173-1.026-0.388-1.51-0.646
						C13.75,249.112,10.906,243.122,10.964,237.914z"/>
				</g>
				<g>
					<g>
						<path d="M461.748,359.884c1.076,0,2.109-0.6,2.614-1.631c0.705-1.443,0.108-3.184-1.334-3.889
							c-7.279-3.561-8.368-10.764-8.369-14.74c-0.003-9.336,5.988-21.724,17.445-27.336c7.45-3.648,13.676-4.406,18.503-2.25
							c6.219,2.777,8.177,9.498,8.195,9.566c0.436,1.545,2.039,2.444,3.588,2.009c1.545-0.437,2.444-2.042,2.008-3.587
							c-0.107-0.383-2.743-9.421-11.418-13.297c-6.478-2.894-14.361-2.107-23.435,2.338c-12.192,5.973-20.705,19.361-20.7,32.559
							c0.002,9.072,4.24,16.349,11.627,19.961C460.885,359.788,461.32,359.884,461.748,359.884z"/>
					</g>
					<g>
						<path d="M470.07,339.624c-4.645-5.441,1.594-13.292,7.331-14.692c4.976-1.46,8.893,2.379,7.533,7.385
							C483.508,338.043,475.45,344.036,470.07,339.624L470.07,339.624z M471.366,338.326c4.39,3.952,11.388-1.38,12.274-6.315
							c1.017-4.085-1.993-7.075-6.018-6.148C472.684,326.862,467.631,333.851,471.366,338.326L471.366,338.326z"/>
					</g>
					<g>
						<path d="M465.143,344.559c-2.83-2.794-3.388-7.142-2.492-10.839c1.785-7.31,7.816-13.418,15.18-15.048
							c8.857-2.106,15.285,4.294,13.125,13.151C488.772,341.917,474.357,352.952,465.143,344.559L465.143,344.559z M466.337,343.362
							c2.407,2.336,6.052,2.557,9.218,1.869c6.637-1.443,12.328-7.166,13.99-13.741c2.492-10.803-7.813-14.691-16.006-9.226
							C466.929,326.21,460.387,336.428,466.337,343.362L466.337,343.362z"/>
					</g>
					<g>
						<path d="M460.304,349.403c-3.916-3.936-4.585-10.006-3.229-15.139c2.803-10.139,11.111-18.508,21.254-21.33
							c12.602-3.345,21.911,5.819,18.743,18.472c-2.87,10.18-11.402,18.608-21.605,21.289
							C470.311,354.003,464.254,353.308,460.304,349.403L460.304,349.403z M461.501,348.205c3.492,3.506,8.926,4.13,13.609,2.991
							c9.606-2.342,17.783-10.642,19.905-20.275c3.438-15.763-11.172-21.088-23.292-13.833
							c-6.501,3.721-11.664,10.173-13.315,17.491C457.329,339.29,457.997,344.707,461.501,348.205L461.501,348.205z"/>
					</g>
					<g>
						<path d="M453.609,334.462c-10.834-6.996-23.246-11.176-35.817-13.677c-13.906-2.569-28.078-4.715-41.304-9.854
							c-1.497-0.632-3.062-1.314-4.337-2.287l-0.458-0.19c-0.449-0.188-0.967,0.023-1.154,0.474
							c-0.869,1.926,8.447,5.517,10.037,6.187c13.371,5.161,27.559,7.733,41.377,11.293c6.703,1.914,13.256,4.42,19.454,7.585
							c3.021,1.546,6.1,3.253,8.835,5.21C453.427,341.401,456.77,336.795,453.609,334.462L453.609,334.462z"/>
					</g>
					<g>
						<path d="M440.662,311.026c-18.73-10.479-39.225-17.911-60.34-21.762c-21.02-3.578-42.479-3.497-63.568-6.229
							c-5.983-0.777-11.913-1.958-17.854-3.187c-0.472-0.1-0.935,0.203-1.033,0.674c-0.093,0.441,0.172,0.877,0.591,1.012
							c5.824,1.841,11.773,3.314,17.782,4.557c23.893,4.538,48.417,4.169,72.133,9.457c5.772,1.212,11.813,2.847,17.46,4.55
							c5.77,1.735,11.493,3.665,17.147,5.79c5.663,2.09,11.283,4.388,16.78,6.842C440.785,313.228,441.768,311.71,440.662,311.026
							L440.662,311.026z"/>
					</g>
					<g>
						<path d="M176.544,277.208c-15.329,0.442-30.789-0.383-45.906-3.016c-15.205-2.651-29.729-7.749-44.588-11.998
							c-9.934-2.962-20.239-5.045-30.578-5.894c-0.408-0.033-0.766,0.271-0.799,0.678c-0.032,0.382,0.237,0.72,0.604,0.79
							c15.302,2.48,29.814,7.644,44.508,12.447c14.833,4.835,30.141,8.75,45.763,9.487c10.401,0.669,20.815,0.424,31.157-0.866
							C177.682,278.696,177.654,277.166,176.544,277.208L176.544,277.208z"/>
					</g>
					<g>
						<path d="M284.778,292.956c-13.636-2.636-27.43-4.332-41.29-5.184c-13.776-0.734-27.54-1.217-41.119-3.554
							c-0.755-0.145-1.117,0.988-0.344,1.268c3.355,1.206,6.748,1.945,10.176,2.641c6.844,1.322,13.777,2.114,20.724,2.593
							c10.383,0.584,20.658,1.014,31.03,1.788c6.891,0.469,13.788,0.972,20.702,1.37c0.256,0.017,0.478-0.178,0.495-0.435
							C285.167,293.208,285.002,293.003,284.778,292.956L284.778,292.956z"/>
					</g>
					<g>
						<path d="M234.085,271.628c-13.636-2.635-27.43-4.332-41.29-5.184c-13.776-0.734-27.54-1.217-41.119-3.554
							c-0.755-0.145-1.118,0.988-0.344,1.268c3.355,1.206,6.748,1.946,10.175,2.641c6.845,1.322,13.777,2.114,20.725,2.593
							c10.382,0.585,20.657,1.014,31.03,1.788c6.89,0.47,13.787,0.972,20.701,1.37c0.257,0.017,0.479-0.178,0.495-0.435
							C234.475,271.881,234.309,271.675,234.085,271.628L234.085,271.628z"/>
					</g>
					<g>
						<path d="M10.618,241.837c10.858,3.601,21.843,5.999,33.062,7.925c3.7,0.634,7.415,1.16,11.128,1.655
							c0.406,0.054,0.78-0.232,0.833-0.639c0.052-0.385-0.203-0.74-0.575-0.822c-7.255-1.665-14.446-3.592-21.541-5.817
							c-6.986-2.231-14.13-4.729-20.762-7.708C9.046,234.899,6.843,240.384,10.618,241.837L10.618,241.837z"/>
					</g>
				</g>
				<g>
					<path d="M454.883,357.132c-50.82-27.422-102.668-39.33-231.078-53.087c-114.69-12.287-192.371-37.491-200.85-40.324
						c-0.696-0.232-1.357-0.516-1.966-0.842c-16.058-8.603-15.097-19.432-13.095-25.121c2.224-6.322,8.81-9.836,15.31-8.171
						c71.731,18.342,111.006,20.803,249.837,27.314c116.296,5.455,191.973,35.066,219.112,47.545
						c8.487,3.902,13.73,12.299,13.358,21.391l0,0c-0.288,7.004-2.991,13.851-8.036,20.35c-9.181,11.828-19.1,14.981-27.067,14.981
						C462.069,361.168,455.866,357.714,454.883,357.132z M13.38,239.688c-2.46,6.989,1.024,13.067,10.355,18.066
						c0.319,0.171,0.676,0.323,1.062,0.452c8.419,2.813,85.546,27.836,199.629,40.058c65.928,7.063,108.346,13.282,141.833,20.797
						c35.906,8.058,64.106,18.229,91.436,32.981c0.056,0.03,0.12,0.068,0.175,0.102c0.758,0.477,18.757,11.423,35.015-9.522
						c4.288-5.524,6.582-11.251,6.819-17.022l0,0c0.274-6.728-3.642-12.956-9.978-15.87c-20.934-9.624-98.444-41.46-216.956-47.019
						c-139.302-6.534-178.721-9.007-251.004-27.49c-0.596-0.152-1.193-0.226-1.781-0.226
						C17.062,234.994,14.392,236.808,13.38,239.688z"/>
				</g>
			</g>
			<g>
				<g>
					<path fill="#21E871" d="M56.183,240.335c0,0,16.889-3.562,16.777-26.7c-0.002-0.158-0.004-0.308-0.007-0.466
						c-0.062-3.918-0.679-7.797-1.787-11.559c-5.346-18.257-22.053-33.675-41.365-37.231c0,0-0.697,1.847-1.648,4.959
						c-0.495,1.633-1.066,3.62-1.626,5.874c-0.008,0.009-0.008,0.009-0.007,0.017c-0.734,2.882-1.463,6.204-2.065,9.784
						C20.881,206.266,21.951,236.782,56.183,240.335z"/>
				</g>
				<g opacity="0.6">
					<path fill="#FFFFFF" d="M33.573,170.78c0,0-0.697,1.846-1.648,4.959c-0.496,1.633-1.066,3.62-1.627,5.873
						c-0.007,0.01-0.007,0.01-0.007,0.018c-0.734,2.881-1.462,6.204-2.065,9.784c-1.892,11.255-2.48,25.107,2.467,36.178
						c-8.905-11.692-8.518-29.021-6.239-42.579c0.603-3.58,1.331-6.902,2.065-9.784c-0.001-0.008-0.001-0.008,0.007-0.017
						c0.561-2.254,1.131-4.241,1.626-5.874c0.951-3.112,1.648-4.959,1.648-4.959c16.417,3.023,30.947,14.621,38.219,29.245
						C60.088,182.093,47.51,173.347,33.573,170.78z"/>
				</g>
				<g opacity="0.3">
					<path fill="#0F3B6B" d="M26.526,175.212c0.703-2.113,1.243-4.074,1.626-5.874C27.658,170.971,27.087,172.958,26.526,175.212z"
						/>
				</g>
				<g opacity="0.25">
					<path fill="#000072" d="M56.183,240.335c0,0,16.889-3.562,16.777-26.7c-0.002-0.158-0.004-0.308-0.007-0.466
						c-0.49-3.847-1.095-7.793-1.787-11.559c0,0-0.677,17.731-16.042,26.508c0,0-33.002-14.354-30.671-43.105
						C20.881,206.266,21.951,236.782,56.183,240.335z"/>
				</g>
				<g opacity="0.6">
					<path fill="#FFFFFF" d="M61.433,204.514c1.277-5.692,1.437-15.39-9.916-20.659c-1.378-0.639-2.745,0.891-1.931,2.173
						c2.373,3.738,5.923,10.092,8.955,18.638C59.045,206.084,61.104,205.983,61.433,204.514z"/>
				</g>
				<g>
					<path d="M59.092,240.265c-1.264-20.92-6.864-45.024-20.395-61.466c-0.498-0.597-1.495,0.056-1.079,0.757
						c5.501,9.152,9.046,19.184,11.505,29.513c2.323,10.254,3.737,20.852,4.156,31.335
						C53.439,244.276,59.108,244.176,59.092,240.265L59.092,240.265z"/>
				</g>
				<g>
					<path d="M55.885,243.226c-13.576-1.41-23.463-6.999-29.385-16.611c-14.336-23.268-0.031-61.647,0.584-63.271
						c0.499-1.313,1.862-2.082,3.245-1.827c24.997,4.605,45.427,27.979,45.542,52.104c0.12,25.219-18.895,29.518-19.087,29.559
						c-0.197,0.041-0.398,0.063-0.599,0.063C56.085,243.241,55.985,243.235,55.885,243.226z M31.456,223.573
						c4.854,7.871,13.1,12.518,24.514,13.813c2.306-0.682,14.176-5.104,14.087-23.738c-0.099-20.684-17.084-40.767-38.346-45.895
						C28.923,176.246,20.492,205.796,31.456,223.573z"/>
				</g>
			</g>
		</g>
		<g>
			<g>
				<circle fill="#347AB4" cx="434.777" cy="25.254" r="21.201"/>
			</g>
			<g opacity="0.6">
				<path fill="#FFFFFF" d="M434.777,9.336c-10.814,0-19.73,8.099-21.031,18.56c-0.108-0.865-0.17-1.746-0.17-2.642
					c0-11.709,9.492-21.2,21.201-21.2s21.201,9.491,21.201,21.2c0,0.896-0.063,1.776-0.17,2.642
					C454.508,17.435,445.591,9.336,434.777,9.336z"/>
			</g>
			<g>
				<path d="M410.668,25.254c0-13.294,10.816-24.108,24.109-24.108s24.108,10.814,24.108,24.108s-10.815,24.108-24.108,24.108
					S410.668,38.548,410.668,25.254z M416.483,25.254c0,10.088,8.206,18.294,18.294,18.294c10.087,0,18.293-8.206,18.293-18.294
					c0-10.087-8.206-18.294-18.293-18.294C424.689,6.96,416.483,15.167,416.483,25.254z"/>
			</g>
		</g>
		<g>
			<g>
				<path fill="#347AB4" d="M229.419,215.147l2.172,3.673l13.137,22.267l3.854,6.525l6.293,10.654c0,0,5.733-10.033,18.638-4.301
					c12.904,5.741,29.085,53.3,80.299,51.645c42.499-1.379,54.24-41.524,47.008-77.972h-0.009v-0.026
					c-0.009-0.008-0.009-0.017-0.009-0.017c-1.482-7.466-3.767-14.775-6.741-21.56c-13.215-30.146-19.086-45.24-17.336-57.309
					c0.569-3.923,1.949-7.526,4.13-11.216c0,0,57.317,13.207,91.558-27.335c4.845-5.725,9.224-12.525,12.913-20.594
					c0,0,3.457-0.742,6.138-4.139c3.396-4.284,5.561-12.818-2.043-29.456c0,0,2.896-6.009,0.586-11.845
					c-0.5-1.267-1.25-2.534-2.327-3.724c-6.043-6.655-14.956-2.052-14.956-2.052c-0.026-0.009-0.061-0.025-0.087-0.034
					c-0.327-0.138-1.62-0.673-3.749-1.259c-0.19-0.052-0.38-0.104-0.561-0.155c-3.216-0.845-8.078-1.759-14.189-1.802
					c0,0-0.052-0.111-0.155-0.318C452.24,31.204,435.37-1.44,402.259,6.11c0,0-21.611-8.301-33.387,1.845
					c0,0-19.155-10.241-38.818,5.526c-19.672,15.775-16.188,48.343-16.188,48.343s-19.354,26.224-16.896,60.946
					c2.414,34.12,19.077,88.127,19.654,89.973c0.009,0.033,0.009,0.051,0.009,0.051s-0.068-0.068-0.198-0.207
					c-0.068-0.06-0.146-0.146-0.241-0.24c-0.095-0.096-0.207-0.217-0.327-0.337c-0.069-0.077-0.139-0.146-0.225-0.232
					c-4.431-4.362-23.232-21.172-47.956-18.854C239.307,195.588,229.419,215.147,229.419,215.147z"/>
			</g>
			<g>
				<path fill="#FFF46E" d="M244.729,241.087l10.146,17.18c0,0,5.733-10.033,18.638-4.301c12.904,5.741,29.085,53.3,80.299,51.645
					c51.214-1.664,57.767-59.627,40.249-99.574c-17.508-39.947-22.12-53.464-13.206-68.524c0,0,74.661,17.207,104.471-47.929
					c0,0-12.318-15.759-33.215-6.19c-20.887,9.569-54.36,30.154-84.781-2.103c0,0-14.543-10.439-31.336-1.535
					c-16.801,8.905-26.723,27.344-12.232,79.782c14.482,52.438,18.577,61.86,20.629,89.929c2.052,28.06-24.172,37.274-38.714,12.49
					c-14.543-24.783-41.585-34.412-60.637-21.094C244.936,240.932,244.832,241.009,244.729,241.087z"/>
			</g>
			<g opacity="0.25">
				<path fill="#000072" d="M334.323,121.64c2.354,8.811,20.488,18.631,42.401,27.088c0.569-3.923,1.949-7.526,4.13-11.216
					c0,0,57.317,13.207,91.558-27.335c-0.819-4.932-3.043-9.302-7.982-10.914c-13.672-4.457-30.732,21.768-64.524,16.232
					c-20.084-3.288-31.917-10.697-38.214-16.17c-6.944-6.035-17.585-5.715-23.852,1.022
					C333.871,104.615,331.56,111.271,334.323,121.64z"/>
			</g>
			<g opacity="0.25">
				<path fill="#000072" d="M248.582,247.612l6.293,10.654c0,0,5.733-10.033,18.638-4.301c12.904,5.741,29.085,53.3,80.299,51.645
					c42.499-1.379,54.24-41.524,47.008-77.972c-0.009-0.017-0.009-0.026-0.009-0.026c-0.009-0.008-0.009-0.017-0.009-0.017
					s0,0.017,0.009,0.043c0.216,1.724,6.077,50.007-26.922,50.964c-33.594,0.975-38.103-45.067-38.103-45.067
					s2.491,50.809-17.31,48.981c-19.801-1.828-26.06-33.154-44.249-39.913C262.987,238.423,253.893,243.284,248.582,247.612z"/>
			</g>
			<g opacity="0.6">
				<path fill="#FFFFFF" d="M490.006,44.144c0.624,6.792-1.509,10.051-3.481,11.601c-1.296,1.019-1.595,2.854-0.767,4.279
					c5.063,8.714,5.705,25.421,5.705,25.421c3.396-4.284,5.561-12.818-2.043-29.456C489.42,55.988,492.316,49.979,490.006,44.144z"
					/>
			</g>
			<g opacity="0.6">
				<path fill="#FFFFFF" d="M409.225,44.515c0,0,2.861-5.225,10.033-5.629c7.173-0.414,13.932,5.939,13.932,5.939
					c21.715-8.5,39.231-0.207,39.231-0.207c6.956-6.552,17.585-0.475,17.585-0.475c-0.5-1.267-1.25-2.534-2.327-3.724
					c-6.043-6.655-14.956-2.052-14.956-2.052c-0.026-0.009-0.061-0.025-0.087-0.034c-1.259-0.475-2.509-0.888-3.749-1.259
					c-0.19-0.052-0.38-0.104-0.561-0.155c-5.104-1.448-9.966-2.034-14.345-2.12c-11.966-0.233-20.379,3.267-20.379,3.267
					s-3.077-5.017-14.379-4C407.931,35.093,409.225,44.515,409.225,44.515z"/>
			</g>
			<g opacity="0.6">
				<path fill="#FFFFFF" d="M296.969,122.771c2.414,34.12,19.077,88.127,19.654,89.973c-0.336-1.664-8.663-42.844-11.974-81.438
					c-3.379-39.396,12.604-58.008,12.604-58.008s-2.871-30.421,12.904-50.566c15.767-20.139,46.801-7.707,46.801-7.707l-2.405-3.216
					c12.138-5.043,27.603,1.061,27.603,1.061c31.24-6.966,43.81,22.792,43.81,22.792l8.172-0.543c0,0-0.052-0.111-0.155-0.318
					C452.24,31.204,435.37-1.44,402.259,6.11c0,0-21.611-8.301-33.387,1.845c0,0-19.155-10.241-38.818,5.526
					c-19.672,15.775-16.188,48.343-16.188,48.343S294.512,88.048,296.969,122.771z"/>
			</g>
			<g opacity="0.6">
				<path fill="#FFFFFF" d="M229.419,215.147l2.172,3.673c47.628-44.017,88.601,6.698,88.601,6.698l-3.561-12.725
					c0,0-0.068-0.068-0.198-0.207c-0.068-0.06-0.146-0.146-0.241-0.24c-0.095-0.096-0.207-0.217-0.327-0.337
					c-0.069-0.077-0.139-0.146-0.225-0.232c-4.431-4.362-23.232-21.172-47.956-18.854
					C239.307,195.588,229.419,215.147,229.419,215.147z"/>
			</g>
			<g>
				<g>
					
						<ellipse transform="matrix(-0.9843 0.1766 -0.1766 -0.9843 707.8754 25.2872)" fill="#FFF764" cx="352.813" cy="44.142" rx="19.339" ry="24.151"/>
				</g>
				<g>
					<path fill="#FFC451" d="M334.848,33.108c2.822,12.365,12.876,20.768,23.009,18.95c6.388-1.146,11.33-6.091,13.702-12.737
						c0.105,0.464,0.204,0.932,0.289,1.406c2.355,13.129-4.259,25.3-14.771,27.186c-10.514,1.886-20.944-7.229-23.299-20.356
						C332.853,42.404,333.315,37.402,334.848,33.108z"/>
				</g>
				<g>
					
						<ellipse transform="matrix(-0.9843 0.1766 -0.1766 -0.9843 713.2457 21.2768)" cx="355.676" cy="42.369" rx="15.482" ry="20.704"/>
				</g>
				<g>
					
						<ellipse transform="matrix(-0.9843 0.1765 -0.1765 -0.9843 723.051 12.9379)" fill="#FFFFFF" cx="360.95" cy="38.622" rx="5.893" ry="9.865"/>
				</g>
				<g>
					<path d="M331.6,47.947c-1.229-6.843-0.236-13.681,2.793-19.256c3.117-5.737,8.006-9.466,13.766-10.499
						c11.703-2.102,23.302,7.837,25.867,22.145c1.229,6.843,0.236,13.682-2.794,19.256c-3.116,5.738-8.005,9.466-13.765,10.499
						c-1.05,0.188-2.098,0.279-3.141,0.279C343.76,70.371,333.935,60.971,331.6,47.947z M348.939,22.55
						c-4.41,0.791-8.195,3.723-10.657,8.255c-2.551,4.694-3.377,10.505-2.327,16.361c2.136,11.906,11.435,20.233,20.73,18.568
						c4.409-0.791,8.195-3.723,10.656-8.255c2.552-4.693,3.379-10.504,2.328-16.361c-1.953-10.885-9.894-18.781-18.344-18.781
						C350.533,22.337,349.736,22.407,348.939,22.55z"/>
				</g>
				<g opacity="0.35">
					
						<ellipse transform="matrix(-0.9682 0.2501 -0.2501 -0.9682 697.8916 6.2559)" fill="#FFFFFF" cx="348.548" cy="47.468" rx="2.686" ry="4.225"/>
				</g>
			</g>
			<g>
				<g>
					<path d="M313.886,213.744c3.737,12.462,6.776,25.393,7.701,38.419c0.268,4.339,0.298,8.668-0.017,13.07
						c-0.054,0.521,0.336,0.99,0.86,1.025c0.426,0.031,0.805-0.23,0.942-0.613c3.072-8.693,2.978-18.156,2.018-27.2
						c-0.778-6.786-2.082-13.485-3.941-20.048c-0.627-2.196-1.258-4.336-2.067-6.552c-0.552-1.508-2.221-2.283-3.729-1.732
						C314.176,210.652,313.403,212.268,313.886,213.744L313.886,213.744z"/>
				</g>
				<g>
					<path d="M381.456,134.672c-9.167-2.261-18.206-5.573-26.763-9.61c-5.227-2.506-10.214-5.262-15.285-8.156
						c-0.394-0.238-0.912-0.104-1.136,0.299c-0.183,0.328-0.114,0.727,0.141,0.978c7.016,7.067,15.749,12.225,24.767,16.331
						c3.658,1.59,7.369,3.063,11.183,4.255c1.935,0.587,3.798,1.146,5.886,1.592c1.569,0.336,3.114-0.664,3.45-2.233
						C384.039,136.55,383.021,135.003,381.456,134.672L381.456,134.672z"/>
				</g>
				<g>
					<path d="M454.092,32.213c-7.318,0.269-14.315,0.878-21.412,3.094l2.572,0.366c-10.707-7.176-25.563-6.897-28.808,7.83
						c-0.037,0.168-0.085,0.514-0.11,0.686l2.646-2.568c-5.544,0.72-10.795,3.114-15.158,6.55c-1.431,1.12-2.697,2.443-3.829,3.838
						c-0.325,0.4-0.264,0.987,0.137,1.313c0.306,0.247,0.715,0.269,1.04,0.093c5.118-2.633,10.428-4.755,16.097-5.69
						c0.64-0.108,1.544-0.238,2.197-0.31c1.079-0.134,1.946-0.845,2.33-1.784l0.317-0.783c0.311-1.875,1.203-3.867,2.455-5.277
						c4.18-4.519,11.156-2.609,15.98,0.05c1.286,0.729,2.49,1.755,3.972,1.203c6.172-1.946,13.185-2.577,19.704-2.796
						C458.038,37.833,457.955,32.249,454.092,32.213L454.092,32.213z"/>
				</g>
				<g>
					<path d="M310.973,62.085c0.651,4.19,2.098,8.349,5.081,11.44c0.4,0.407,1.144,0.108,1.16-0.456
						c0.167-2.058,0.007-3.952-0.102-5.949c-0.097-1.596-0.208-4.1-0.354-5.619C316.271,57.671,310.686,58.229,310.973,62.085
						L310.973,62.085z"/>
				</g>
				<g>
					<path d="M367.75,10.636c3.039,1.186,6.036,2.493,8.794,4.303c0.272,0.167,0.628,0.082,0.796-0.189
						c0.085-0.139,0.104-0.301,0.067-0.447c-0.241-0.94-0.58-1.885-1.058-2.742c-0.931-1.753-2.221-3.314-3.738-4.595
						c-0.83-0.68-1.616-1.244-2.625-1.696C366.35,3.809,364.149,9.079,367.75,10.636L367.75,10.636z"/>
				</g>
				<g>
					<path d="M487.393,87.542c-6.368-6.072-14.58-10.753-23.638-10.703c-5.913-0.014-11.268,3.171-16.312,5.663
						c-11.67,5.911-23.918,11.399-36.974,12.901c-16.15,2.24-30.747-3.769-42.81-14.416c-0.188-0.161-0.47-0.141-0.631,0.047
						c-0.137,0.158-0.139,0.389-0.025,0.552c3.172,4.44,7.164,8.366,11.771,11.532c19.422,13.262,44.179,7.542,63.897-1.93
						c4.835-2.206,9.707-4.836,14.481-6.956c2.24-0.995,4.314-1.497,6.705-1.552c7.28-0.014,14.188,4.17,19.446,8.996
						C486.067,94.269,490.033,90.313,487.393,87.542L487.393,87.542z"/>
				</g>
				<g>
					<ellipse transform="matrix(-0.91 0.4146 -0.4146 -0.91 936.8611 -106.9508)" cx="480.039" cy="48.208" rx="4.612" ry="4.233"/>
				</g>
				<g>
					<ellipse transform="matrix(-0.91 -0.4145 0.4145 -0.91 787.8182 265.6024)" cx="422.731" cy="47.31" rx="5.779" ry="4.689"/>
				</g>
			</g>
			<g>
				<path d="M283.84,268.81c-4.55-5.816-8.479-10.839-11.506-12.185c-10.07-4.476-14.479,2.318-14.936,3.087
					c-0.514,0.899-1.467,1.457-2.504,1.465c-1.045,0-1.997-0.537-2.524-1.43l-25.451-43.117c-0.503-0.854-0.538-1.905-0.092-2.789
					c0.434-0.857,10.949-21.029,40.587-23.811c19.158-1.798,34.731,7.117,43.535,13.846c-5.05-17.514-15.023-54.677-16.879-80.903
					c-2.278-32.161,13.335-56.888,16.81-61.955c-0.446-6.103-1.446-34.724,17.353-49.802c17.629-14.141,34.77-8.91,40.238-6.643
					c11.792-8.411,29.826-2.922,33.984-1.483c15.002-3.15,29.13,1.136,40.891,12.433c6.79,6.521,10.939,13.579,12.602,16.727
					c8.344,0.281,14.238,2.075,16.698,2.97c4.208-1.681,11.807-2.677,17.185,3.248c5.838,6.431,3.864,14.353,2.747,17.46
					c5.354,12.156,6.329,21.775,2.896,28.607c-2.301,4.58-5.988,6.601-8.044,7.411c-16.021,33.909-44.142,45.314-65.026,48.896
					c-18.537,3.18-34.407,0.96-40.041-0.062c-6.694,12.882-2.624,25.338,14.365,64.088c12.321,28.1,11.975,60.658-0.863,81.018
					c-8.957,14.205-23.466,22.03-41.957,22.629c-0.922,0.03-1.83,0.045-2.73,0.045C314.936,308.559,296.283,284.717,283.84,268.81z
					 M381.502,134.682c0.185,0.042,18.517,4.142,40.107,0.396c28.612-4.964,49.16-20.678,61.068-46.705
					c0.382-0.836,1.137-1.441,2.035-1.634c0.035-0.007,3.578-0.863,5.564-4.816c1.863-3.707,2.768-11.006-3.504-24.727
					c-0.355-0.777-0.345-1.686,0.021-2.46c0.14-0.295,3.348-7.274-1.27-12.362c-4.436-4.885-11.192-1.557-11.466-1.42
					c-0.783,0.405-1.715,0.43-2.52,0.073c-0.066-0.029-6.742-2.929-17.424-3.001c-1.13-0.007-2.155-0.672-2.625-1.699
					c-0.041-0.088-4.162-8.97-12.301-16.734C428.568,9.458,416.358,5.874,402.904,8.944c-0.562,0.127-1.148,0.086-1.688-0.121
					c-0.199-0.076-20.108-7.571-30.451,1.333c-0.909,0.783-2.208,0.928-3.267,0.36c-0.176-0.093-17.669-9.17-35.628,5.234
					c-18.169,14.572-15.144,45.458-15.11,45.766c0.077,0.725-0.12,1.451-0.553,2.036c-0.187,0.254-18.693,25.742-16.338,59.009
					c2.406,33.981,19.369,88.82,19.541,89.37c0.404,1.3-0.148,2.704-1.328,3.383c-1.179,0.678-2.673,0.446-3.594-0.557
					c-0.196-0.215-19.98-21.427-46.532-18.938c-22.418,2.104-32.453,15.078-35.163,19.324l22.514,38.142
					c3.813-3.353,10.419-5.96,19.388-1.974c4.352,1.935,8.488,7.222,13.725,13.915c12.028,15.377,30.182,38.606,65.299,37.478
					c16.708-0.542,29.232-7.244,37.226-19.92c11.854-18.797,12.037-49.171,0.458-75.581c-17.744-40.468-22.671-54.916-13.053-71.168
					c0.531-0.897,1.491-1.427,2.503-1.427C381.068,134.608,381.286,134.632,381.502,134.682z"/>
			</g>
		</g>
		<g>
			<g>
				<path fill="#FF617C" d="M452.033,83.437c12.931-6.639,7.957,27.335,9.018,40.653c1.534,19.198,22.594,25.31,35.507,19.758
					c12.913-5.551,12.405-22.137,12.405-22.137c-3.905,7.129-11.552,10.87-11.552,10.87c1.526-6.568-0.345-13.422-0.345-13.422
					c-0.439,1.965-4.164,6.293-5.664,7.974c0,0-0.008,0.009-0.017,0.018c-0.371,0.423-0.604,0.673-0.604,0.673
					c-0.069,0.008-0.138,0.008-0.198,0.008c-21.457,1.448-7.682-36.731-11.811-45.654c-4.129-8.947-13.137-4.413-13.137-4.413
					c-3.828-1.741-6.707-1.345-8.811-0.181C453.387,79.487,452.033,83.437,452.033,83.437z"/>
			</g>
			<g opacity="0.3">
				<path fill="#000072" d="M452.033,83.437c12.931-6.639,7.957,27.335,9.018,40.653c1.534,19.198,22.594,25.31,35.507,19.758
					c12.913-5.551,12.405-22.137,12.405-22.137c-3.905,7.129-11.552,10.87-11.552,10.87c1.526-6.568-0.345-13.422-0.345-13.422
					c-0.439,1.965-4.164,6.293-5.664,7.974c0,0-0.008,0.009-0.017,0.018c-0.078,0.069-0.354,0.319-0.802,0.681
					c-3.432,2.828-16.681,12.508-21.56-1.888c-5.371-15.853,2.62-40.473-12.198-48.36C453.387,79.487,452.033,83.437,452.033,83.437
					z"/>
			</g>
			<g>
				<path d="M470.665,130.482c4.324,6.167,11.058,7.561,17.411,3.406c1.949-1.258,3.601-2.649,5.118-4.44
					c1.162-1.25,1.058-3.244-0.281-4.323c-1.263-1.025-3.117-0.833-4.142,0.429c-0.411,0.538-0.565,1.064-1.002,1.678
					c-1.617,2.455-3.888,4.834-6.695,5.756c-3.557,1.209-7.123-0.614-9.826-3.033C470.916,129.634,470.379,130.119,470.665,130.482
					L470.665,130.482z"/>
			</g>
			<g>
				<path d="M465.074,80.613c-0.059-0.009-0.184-0.048-0.184-0.048c-0.012-0.004-0.072-0.036-0.045-0.027
					c0.017,0.009,0.023-0.012,0.066,0.016c0.985,0.51,1.556,1.465,2.098,2.552c1.846,3.988,2.027,9.143,2.039,13.552
					c-0.117,7.006,0.144,14.086,1.278,21.01c0.333,1.995,0.698,3.938,1.302,5.945c0.131,0.435,0.588,0.68,1.021,0.55
					s0.673-0.585,0.553-1.013c-1.482-7.631-1.199-15.603-0.605-23.334c0.367-3.893,0.84-8.318,0.508-12.222
					c-0.346-4.563-1.776-11.097-6.9-12.685C462.412,74.282,461.328,79.748,465.074,80.613L465.074,80.613z"/>
			</g>
			<g>
				<path d="M470.442,144.37c-7.241-4.367-11.605-11.489-12.288-20.054c-0.273-3.434-0.166-8.082-0.051-13.004
					c0.193-8.284,0.552-23.704-2.651-25.714c-0.499-0.313-1.524,0.129-2.093,0.42c-1.056,0.541-2.334,0.387-3.229-0.39
					c-0.896-0.776-1.231-2.021-0.846-3.142c0.2-0.585,2.108-5.775,7.114-7.93c2.807-1.209,5.913-1.188,9.241,0.059
					c1.853-0.667,5.354-1.527,8.94-0.274c2.99,1.044,5.291,3.271,6.838,6.618c1.666,3.606,1.118,9.555,0.426,17.087
					c-0.851,9.257-1.91,20.776,2.32,25.064c1.229,1.247,2.956,1.859,5.255,1.859c0.009,0,0.017,0,0.025,0
					c2.388-2.687,4.532-5.56,4.788-6.447c0.292-1.304,1.436-2.24,2.771-2.271c0.021-0.001,0.043-0.001,0.066-0.001
					c1.308,0,2.458,0.876,2.805,2.142c0.058,0.214,1.012,3.785,1.041,8.349c1.925-1.593,4.03-3.753,5.497-6.431
					c0.629-1.15,1.952-1.734,3.227-1.432c1.275,0.306,2.188,1.428,2.229,2.738c0.022,0.758,0.402,18.644-14.16,24.903
					c-3.469,1.49-7.328,2.223-11.238,2.223C480.904,148.744,475.234,147.26,470.442,144.37z M498.687,135.192
					c-1.01,0.494-2.212,0.361-3.088-0.338c-0.878-0.698-1.274-1.84-1.021-2.933c0.358-1.54,0.503-3.113,0.522-4.593
					c-0.843,0.998-1.625,1.865-2.183,2.469c-0.496,0.537-1.178,0.867-1.908,0.924c-4.621,0.363-8.32-0.825-10.986-3.527
					c-6.127-6.211-4.98-18.68-3.969-29.68c0.514-5.59,1.096-11.926,0.084-14.117c-0.866-1.875-1.994-3.038-3.445-3.556
					c-2.677-0.954-5.732,0.509-5.746,0.517c-0.786,0.395-1.709,0.414-2.512,0.049c-2.217-1.009-4.139-1.185-5.709-0.521
					c-0.291,0.123-0.563,0.271-0.82,0.437c0.229,0.11,0.44,0.229,0.635,0.351c5.586,3.504,5.755,14.46,5.376,30.775
					c-0.111,4.768-0.216,9.271,0.034,12.406c0.678,8.518,5.537,13.15,9.494,15.537c6.502,3.921,15.33,4.641,21.967,1.787
					c4.695-2.018,7.321-5.867,8.789-9.607C501.313,133.89,498.873,135.102,498.687,135.192z"/>
			</g>
		</g>
		<g>
			<g>
				<path fill="#347AB4" d="M169.636,253.216v0.008c0.051,2.992,0.284,5.371,0.448,6.759c0.104,0.88,0.19,1.362,0.19,1.362
					l0.991-0.543l18.672-10.259c4.172-2.293,8.922-2.716,13.198-1.509c4.103,1.155,7.767,3.828,10.06,7.785
					c0.922,1.594,1.724,3.465,2.345,5.646c0.517,1.818,0.905,3.603,1.181,5.344c0.129,0.776,0.233,1.543,0.319,2.302
					c0.922,8.423-0.612,15.775-2.379,21.017c-1.75,5.207-3.724,8.319-3.724,8.319s-8.164-0.362-16.681-1.871l-8.603,11.302
					l-6.517,8.551c0,0,24.077,26.534,58.24,5.069c2.069-1.302,3.991-2.793,5.776-4.482c29.465-27.62,19.991-102.636-29.654-107.272
					c-14.12-1.319-23.775,1.715-30.344,6.853C171.162,226.975,169.455,243.38,169.636,253.216z"/>
			</g>
			<g>
				<path fill="#FFF46E" d="M169.636,253.216c-0.009,0.008,0,0.008,0,0.008c0.086,4.871,0.638,8.121,0.638,8.121l19.663-10.802
					c8.181-4.5,18.577-1.802,23.258,6.276c0.922,1.594,1.724,3.465,2.345,5.646c5.845,20.49-4.604,36.981-4.604,36.981
					s-8.164-0.362-16.681-1.871l-8.603,11.302c8.543,6.534,18.741,10.646,29.06,6.336c26.008-10.854,23.162-73.645-5.518-80.609
					C186.488,229.096,173.774,246.293,169.636,253.216z"/>
			</g>
			<g>
				<g opacity="0.6">
					<path fill="#FFFFFF" d="M209.187,216.776c-16.97-1.584-27.488,3.114-33.953,10.205c5.679-10.215,16.822-18.24,38.264-16.238
						c47.685,4.458,58.309,73.848,32.956,103.803C266.022,282.23,253.902,220.958,209.187,216.776z"/>
				</g>
			</g>
			<g opacity="0.3">
				<path fill="#0F3B6B" d="M169.636,253.216v0.008c0.051,2.992,0.284,5.371,0.448,6.759c0.406,0.276,0.802,0.552,1.182,0.819
					l18.672-10.259c4.172-2.293,8.922-2.716,13.198-1.509c-1.836-7.646-6.931-22.438-19.982-31.438
					C171.162,226.975,169.455,243.38,169.636,253.216z"/>
			</g>
			<g opacity="0.25">
				<path fill="#000072" d="M182.308,313.266c4.905,4.509,22.801,18.388,47.206,7.129c-12.422-1.491-15.111-15.904-14.853-29.267
					c-1.75,5.207-3.724,8.319-3.724,8.319s-8.164-0.362-16.681-1.871l-8.603,11.302L182.308,313.266z"/>
			</g>
			<g>
				<path fill="#000072" d="M209.392,298.396c-0.553,4.741-5.01,6.796-9.42,6.543c-0.235,0.005-0.422,0.2-0.416,0.436
					c0.004,0.195,0.14,0.356,0.319,0.403c1.254,0.344,2.531,0.673,3.854,0.701c1.35,0.08,2.757-0.145,4.13-0.618
					c3.289-1.189,5.765-4.149,6.741-7.505c0.515-1.443-0.237-3.029-1.68-3.544C210.751,293.985,208.538,296.269,209.392,298.396
					L209.392,298.396z"/>
			</g>
			<g>
				<path d="M194.401,330.725c-10.812-4.151-17.156-11.054-17.421-11.346c-0.942-1.038-1.009-2.601-0.16-3.715l15.125-19.854
					c0.66-0.865,1.746-1.291,2.82-1.101c5.901,1.046,11.691,1.531,14.516,1.723c2.208-4.302,7.904-17.598,3.467-33.166
					c-1.649-5.784-4.847-9.677-9.508-11.57c-3.423-1.391-7.35-1.109-10.775,0.771l-20.791,11.423
					c-0.824,0.453-1.818,0.479-2.665,0.069c-0.847-0.409-1.444-1.203-1.602-2.131c-0.188-1.107-4.435-27.301,10.173-43.047
					c8.105-8.738,20.285-12.416,36.186-10.931c22.937,2.143,40.381,19.157,46.66,45.517c5.982,25.105,0.518,57.759-21.501,71.591
					c-10.482,6.585-20.074,8.805-28.244,8.804C204.302,333.763,198.79,332.409,194.401,330.725z M181.859,222.718
					c-9.487,10.21-9.675,26.397-9.155,33.973l16.961-9.318l0,0c4.966-2.729,10.711-3.115,15.764-1.063
					c4.402,1.789,10.216,5.905,12.91,15.363c6.125,21.489-4.494,38.607-4.948,39.326c-0.558,0.881-1.557,1.398-2.584,1.349
					c-0.317-0.015-7.377-0.338-15.301-1.616l-12.502,16.411c5.843,5.257,25.836,19.851,52.829,2.894
					c17.108-10.748,25.25-38.829,18.938-65.32c-5.676-23.82-21.207-39.175-41.546-41.075c-2.102-0.196-4.125-0.294-6.07-0.294
					C196.142,213.347,187.649,216.488,181.859,222.718z"/>
			</g>
		</g>
		<g>
			<g>
				<path fill="#347AB4" d="M90.095,278.879c0,0,18.931,51.291,67.067,46.171c15.646-1.664,25.698-8.577,31.974-17.681
					c13.042-18.904,9.827-47.257,6.741-57.705c-6.448-21.81-25.603-37.688-48.749-32.568c-6.258,1.388-11.336,4.423-15.413,8.129
					c-11.008,9.974-14.732,24.75-14.732,24.75s14.982,1.56,22.361,2.172c0,0,1.595-1.56,4.069-2.362
					c2.086-0.681,4.81-0.81,7.715,0.992c1.414,0.879,2.879,2.224,4.328,4.181c0.345,0.457,0.681,0.939,1.017,1.466
					c3.129,4.861,4.371,11.103,4.129,17.129c-0.379,9.947-4.811,19.318-11.431,20.973c-11.672,2.923-15.792-6.663-15.792-6.663
					s-6.957-1.25-16.517-3.164C108.914,283.103,99.146,281.051,90.095,278.879z"/>
			</g>
			<g>
				<path fill="#FFF46E" d="M116.862,284.697c7.439,15.552,20.33,28.266,40.097,20.911c25.542-9.502,20.063-63.29-3.192-67.436
					c-19.955-3.558-23.028,13.952-23.028,13.952s17.44-8.607,25.733,4.298c8.293,12.904,3.328,35.447-7.301,38.102
					c-11.672,2.923-15.792-6.663-15.792-6.663S126.422,286.611,116.862,284.697z"/>
			</g>
			<g opacity="0.3">
				<path fill="#0F3B6B" d="M116.982,249.975c0,0,14.982,1.56,22.361,2.172c0,0,1.595-1.56,4.069-2.362
					c-20.474-4.715-8.983-24.266-8.983-24.266s-1.06-0.139-2.715-0.294C120.707,235.198,116.982,249.975,116.982,249.975z"/>
			</g>
			<g opacity="0.25">
				<path fill="#000072" d="M98.207,280.749c4.517,9.836,21.827,41.206,57.335,37.43c8.06-0.861,14.422-3.31,19.404-6.81
					c-20.137-0.509-13.957-37.731-13.957-37.731s-0.138-0.026-0.388-0.086c-0.379,9.947-4.811,19.318-11.431,20.973
					c-11.672,2.923-15.792-6.663-15.792-6.663s-6.957-1.25-16.517-3.164C111.25,283.568,104.733,282.215,98.207,280.749z"/>
			</g>
			<g>
				<g opacity="0.6">
					<path fill="#FFFFFF" d="M191.566,255.698c-6.448-21.81-25.603-37.688-48.749-32.568c-8.536,1.889-14.869,6.857-19.472,12.375
						c4.641-7.594,12.184-15.843,23.782-18.409c23.146-5.12,42.301,10.759,48.749,32.568c3.285,11.105,6.706,42.463-9.419,61.175
						C197.579,292.022,194.52,265.681,191.566,255.698z"/>
				</g>
			</g>
			<g>
				<path fill="#000072" d="M155.535,284.548c-0.411,6.86-4.924,13.188-12.071,13.999c-2.356,0.354-4.84,0.263-7.293-0.126
					c-0.315-0.05-0.611,0.165-0.661,0.48c-0.046,0.287,0.129,0.559,0.399,0.642c2.454,0.76,5.041,1.252,7.72,1.242
					c9.102,0.23,15.882-7.358,17.437-15.881C161.561,280.853,155.566,280.462,155.535,284.548L155.535,284.548z"/>
			</g>
			<g>
				<path d="M103.397,305.807c-10.984-12.447-15.831-25.379-16.031-25.923c-0.372-1.007-0.159-2.136,0.554-2.938
					c0.713-0.803,1.808-1.148,2.852-0.896c19.61,4.702,42.89,8.907,43.122,8.949c0.944,0.17,1.753,0.817,2.147,1.691
					c0.335,0.748,3.54,7.241,12.43,5.016c2.799-0.699,5.411-3.639,7.164-8.064c2.732-6.896,3.396-17.862-1.606-25.643
					c-2.25-3.502-4.634-5.428-7.084-5.727c-3.063-0.369-5.563,1.947-5.571,1.954c-0.603,0.589-1.437,0.889-2.27,0.817
					c-7.321-0.604-22.273-2.16-22.423-2.176c-0.839-0.087-1.598-0.534-2.082-1.226c-0.483-0.691-0.642-1.559-0.437-2.376
					c0.304-1.205,7.721-29.563,32.338-35.009c11.793-2.61,23.191-0.308,32.953,6.656c8.954,6.388,15.777,16.306,19.215,27.928
					c2.632,8.898,7.043,38.949-6.746,59.604c-7.547,11.306-19.137,17.864-34.449,19.493c-2.316,0.247-4.605,0.369-6.871,0.369
					C132.671,328.308,116.463,320.614,103.397,305.807z M147.755,219.935c-16.558,3.664-24.31,20.384-26.908,27.518
					c4.542,0.463,12.415,1.254,17.572,1.699c1.647-1.211,4.994-3.131,9.134-2.662c4.286,0.487,8.109,3.302,11.365,8.365
					c6.111,9.506,5.384,22.696,2.121,30.93c-2.488,6.279-6.451,10.387-11.16,11.563c-9.897,2.476-15.956-2.8-18.417-6.882
					c-4.76-0.879-20.864-3.9-36.322-7.425c2.347,4.733,6.521,12.044,12.736,19.054c13.586,15.324,30.067,22.074,48.98,20.063
					c13.514-1.438,23.685-7.137,30.228-16.938c12.554-18.807,8.438-46.507,6.007-54.728c-4.766-16.111-18.071-31.482-37.095-31.482
					C153.358,219.009,150.607,219.304,147.755,219.935z"/>
			</g>
		</g>
		<g display="none">
			<g display="inline">
				<path fill="#FFFFFF" d="M267.107,47.257c3.677-6.016,5.489-13.236,4.714-20.791c-1.883-18.336-18.273-31.674-36.61-29.791
					c-18.336,1.882-31.674,18.272-29.792,36.609c1.883,18.336,18.274,31.674,36.61,29.791c5.101-0.523,9.812-2.172,13.919-4.67
					l15.445,3.463L267.107,47.257z"/>
			</g>
			<g display="inline" opacity="0.5">
				<g>
					<path fill="#FFFFFF" d="M235.867,3.06c17.129-1.759,32.556,9.766,36.048,26.238c0.004-1.176-0.046-2.363-0.169-3.561
						c-1.882-18.336-18.273-31.674-36.609-29.791c-18.336,1.882-31.675,18.272-29.792,36.609c0.124,1.201,0.313,2.381,0.558,3.537
						C205.967,19.247,218.733,4.819,235.867,3.06z"/>
				</g>
			</g>
			<g display="inline">
				<path fill="#000072" d="M215.72,58.017c-7.518-6.117-12.202-14.795-13.192-24.436c-0.99-9.641,1.833-19.09,7.951-26.607
					c6.116-7.517,14.795-12.201,24.437-13.191c19.887-2.041,37.754,12.485,39.797,32.387c0.774,7.528-0.768,14.925-4.462,21.476
					l3.933,13.406c0.289,0.987,0.035,2.055-0.669,2.806c-0.703,0.752-1.753,1.075-2.758,0.849l-14.327-3.213
					c-4.349,2.456-9.088,3.961-14.104,4.476c-1.263,0.129-2.522,0.193-3.774,0.193C230.244,66.161,222.252,63.333,215.72,58.017z
					 M256.584,55.568l10.63,2.384l-2.897-9.877c-0.23-0.786-0.118-1.635,0.309-2.334c3.501-5.729,4.989-12.291,4.302-18.979
					c-0.831-8.096-4.765-15.383-11.077-20.52c-6.311-5.137-14.242-7.511-22.343-6.677c-8.097,0.831-15.384,4.765-20.521,11.077
					c-5.136,6.313-7.507,14.248-6.676,22.344s4.766,15.383,11.078,20.52c6.313,5.137,14.243,7.51,22.343,6.677
					c4.548-0.467,8.822-1.901,12.704-4.263c0.459-0.279,0.982-0.423,1.511-0.423C256.16,55.498,256.374,55.521,256.584,55.568z"/>
			</g>
			<g display="inline" opacity="0.25">
				<path fill="#000072" d="M267.295,46.937c-9.142,7.732-21.736,11.119-34.242,8.006c-13.869-3.452-24.088-14.014-27.764-26.832
					c-0.088,1.7-0.048,3.428,0.131,5.174c1.883,18.336,18.274,31.674,36.61,29.791c5.1-0.523,9.812-2.172,13.919-4.67l15.445,3.463
					l-4.286-14.611C267.172,47.151,267.231,47.043,267.295,46.937z"/>
			</g>
			<g display="inline">
				<path fill="#FF0068" d="M249.292,20.503L249.292,20.503c-2.888-2.889-7.571-2.371-10.459,0.518l-0.45,0.449l-0.449-0.449
					c-2.889-2.889-7.572-3.406-10.46-0.518l0,0c-2.888,2.889-2.888,7.571,0,10.459l0.45,0.45l9.081,9.081
					c0.761,0.762,1.996,0.762,2.757,0l9.081-9.081l0.449-0.45C252.181,28.074,252.181,23.392,249.292,20.503z"/>
			</g>
		</g>
	</g>
</g>
</svg>
